<svg width="4096" height="2304" viewBox="0 0 4096 2304" xmlns="http://www.w3.org/2000/svg">
<defs>
<radialGradient id="sky" cx="50%" cy="58%" r="80%">
<stop offset="0%" stop-color="#0f2740"/>
<stop offset="55%" stop-color="#0a1a2d"/>
<stop offset="100%" stop-color="#07101d"/>
</radialGradient>
<radialGradient id="glow" cx="50%" cy="50%" r="50%">
<stop offset="0%" stop-color="#3fd0e0" stop-opacity="0.16"/>
<stop offset="100%" stop-color="#3fd0e0" stop-opacity="0"/>
</radialGradient>
<linearGradient id="title" x1="0" y1="0" x2="0" y2="1">
<stop offset="0.2" stop-color="#ffffff"/>
<stop offset="1" stop-color="#9fd9e3"/>
</linearGradient>
<linearGradient id="streak" x1="0" y1="0" x2="1" y2="0">
<stop offset="0" stop-color="#cfeef3" stop-opacity="0"/>
<stop offset="1" stop-color="#cfeef3" stop-opacity="0.8"/>
</linearGradient>
</defs>
<rect width="4096" height="2304" fill="url(#sky)"/>
<circle cx="1326" cy="320" r="4.9" fill="#cfeef3" opacity="0.29"/><circle cx="2195" cy="775" r="2.3" fill="#cfeef3" opacity="0.55"/><circle cx="154" cy="919" r="2.3" fill="#cfeef3" opacity="0.30"/><circle cx="1739" cy="1753" r="2.6" fill="#cfeef3" opacity="0.38"/><circle cx="2570" cy="2009" r="4.6" fill="#cfeef3" opacity="0.49"/><circle cx="3999" cy="99" r="5.9" fill="#cfeef3" opacity="0.42"/><circle cx="591" cy="250" r="3.4" fill="#cfeef3" opacity="0.74"/><circle cx="740" cy="1233" r="4.9" fill="#cfeef3" opacity="0.47"/><circle cx="2244" cy="133" r="2.3" fill="#cfeef3" opacity="0.37"/><circle cx="2787" cy="906" r="3.4" fill="#cfeef3" opacity="0.60"/><circle cx="1856" cy="635" r="5.6" fill="#cfeef3" opacity="0.67"/><circle cx="1000" cy="1218" r="4.4" fill="#cfeef3" opacity="0.78"/><circle cx="2988" cy="610" r="6.4" fill="#cfeef3" opacity="0.32"/><circle cx="1713" cy="1605" r="2.7" fill="#cfeef3" opacity="0.54"/><circle cx="161" cy="1416" r="5.4" fill="#cfeef3" opacity="0.59"/><circle cx="3586" cy="665" r="5.1" fill="#cfeef3" opacity="0.61"/><circle cx="2375" cy="967" r="5.8" fill="#cfeef3" opacity="0.82"/><circle cx="1942" cy="1408" r="2.3" fill="#cfeef3" opacity="0.67"/><circle cx="2651" cy="2105" r="5.7" fill="#cfeef3" opacity="0.42"/><circle cx="1580" cy="1417" r="2.1" fill="#cfeef3" opacity="0.53"/><circle cx="688" cy="248" r="2.3" fill="#cfeef3" opacity="0.71"/><circle cx="530" cy="525" r="3.8" fill="#cfeef3" opacity="0.77"/><circle cx="330" cy="952" r="4.5" fill="#cfeef3" opacity="0.78"/><circle cx="3356" cy="1831" r="3.3" fill="#cfeef3" opacity="0.50"/><circle cx="1470" cy="1874" r="6.3" fill="#cfeef3" opacity="0.34"/><circle cx="722" cy="492" r="3.1" fill="#cfeef3" opacity="0.54"/><circle cx="2413" cy="557" r="2.0" fill="#cfeef3" opacity="0.50"/><circle cx="1512" cy="1200" r="6.3" fill="#cfeef3" opacity="0.66"/><circle cx="2111" cy="1309" r="5.0" fill="#cfeef3" opacity="0.28"/><circle cx="3684" cy="1653" r="5.9" fill="#cfeef3" opacity="0.73"/><circle cx="1607" cy="846" r="2.5" fill="#cfeef3" opacity="0.63"/><circle cx="255" cy="143" r="2.9" fill="#cfeef3" opacity="0.35"/><circle cx="1393" cy="111" r="2.0" fill="#cfeef3" opacity="0.34"/><circle cx="416" cy="771" r="2.1" fill="#cfeef3" opacity="0.77"/><circle cx="2515" cy="315" r="3.1" fill="#cfeef3" opacity="0.46"/><circle cx="1492" cy="260" r="5.8" fill="#cfeef3" opacity="0.85"/><circle cx="1909" cy="1026" r="2.4" fill="#cfeef3" opacity="0.31"/><circle cx="1403" cy="561" r="5.7" fill="#cfeef3" opacity="0.35"/><circle cx="95" cy="2016" r="4.4" fill="#cfeef3" opacity="0.34"/><circle cx="2225" cy="57" r="4.4" fill="#cfeef3" opacity="0.84"/><circle cx="3536" cy="1476" r="3.2" fill="#cfeef3" opacity="0.47"/><circle cx="684" cy="1636" r="4.4" fill="#cfeef3" opacity="0.72"/><circle cx="1350" cy="473" r="5.7" fill="#cfeef3" opacity="0.84"/><circle cx="3492" cy="1709" r="5.7" fill="#cfeef3" opacity="0.69"/><circle cx="929" cy="1097" r="3.6" fill="#cfeef3" opacity="0.27"/><circle cx="114" cy="592" r="3.2" fill="#cfeef3" opacity="0.67"/><circle cx="3918" cy="948" r="6.2" fill="#cfeef3" opacity="0.84"/><circle cx="3912" cy="773" r="3.0" fill="#cfeef3" opacity="0.39"/><circle cx="806" cy="433" r="4.8" fill="#cfeef3" opacity="0.79"/><circle cx="3442" cy="1016" r="4.9" fill="#cfeef3" opacity="0.73"/><circle cx="347" cy="1400" r="6.1" fill="#cfeef3" opacity="0.72"/><circle cx="3073" cy="1013" r="2.8" fill="#cfeef3" opacity="0.72"/><circle cx="1362" cy="1697" r="6.4" fill="#cfeef3" opacity="0.49"/><circle cx="1644" cy="2007" r="5.3" fill="#cfeef3" opacity="0.35"/><circle cx="520" cy="320" r="6.1" fill="#cfeef3" opacity="0.73"/><circle cx="599" cy="1752" r="6.4" fill="#cfeef3" opacity="0.64"/><circle cx="1435" cy="1163" r="2.6" fill="#cfeef3" opacity="0.26"/><circle cx="3977" cy="1377" r="4.4" fill="#cfeef3" opacity="0.81"/><circle cx="1777" cy="1848" r="5.7" fill="#cfeef3" opacity="0.38"/><circle cx="1032" cy="621" r="3.1" fill="#cfeef3" opacity="0.60"/><circle cx="1062" cy="888" r="2.6" fill="#cfeef3" opacity="0.80"/><circle cx="1449" cy="971" r="4.6" fill="#cfeef3" opacity="0.79"/><circle cx="1723" cy="1945" r="4.3" fill="#cfeef3" opacity="0.57"/><circle cx="2144" cy="40" r="4.0" fill="#cfeef3" opacity="0.36"/><circle cx="16" cy="1694" r="2.8" fill="#cfeef3" opacity="0.53"/><circle cx="2970" cy="1180" r="3.5" fill="#cfeef3" opacity="0.56"/><circle cx="2275" cy="1662" r="2.5" fill="#cfeef3" opacity="0.59"/><circle cx="1018" cy="587" r="5.5" fill="#cfeef3" opacity="0.55"/><circle cx="2301" cy="1611" r="6.1" fill="#cfeef3" opacity="0.52"/><circle cx="2509" cy="1072" r="4.3" fill="#cfeef3" opacity="0.67"/><circle cx="1853" cy="1130" r="4.2" fill="#cfeef3" opacity="0.81"/><circle cx="2864" cy="1858" r="6.2" fill="#cfeef3" opacity="0.41"/><circle cx="2292" cy="1999" r="5.8" fill="#cfeef3" opacity="0.33"/><circle cx="498" cy="937" r="2.3" fill="#cfeef3" opacity="0.39"/><circle cx="300" cy="1419" r="5.5" fill="#cfeef3" opacity="0.79"/><circle cx="633" cy="1518" r="5.0" fill="#cfeef3" opacity="0.34"/><circle cx="3616" cy="2051" r="3.0" fill="#cfeef3" opacity="0.82"/><circle cx="1631" cy="1033" r="6.5" fill="#cfeef3" opacity="0.75"/><circle cx="661" cy="915" r="4.3" fill="#cfeef3" opacity="0.45"/><circle cx="802" cy="675" r="5.2" fill="#cfeef3" opacity="0.26"/><circle cx="2269" cy="934" r="2.1" fill="#cfeef3" opacity="0.45"/><circle cx="2556" cy="1086" r="2.3" fill="#cfeef3" opacity="0.84"/><circle cx="3229" cy="2060" r="2.5" fill="#cfeef3" opacity="0.41"/><circle cx="162" cy="1651" r="3.2" fill="#cfeef3" opacity="0.33"/><circle cx="1730" cy="1932" r="5.7" fill="#cfeef3" opacity="0.41"/><circle cx="612" cy="1948" r="4.6" fill="#cfeef3" opacity="0.67"/><circle cx="366" cy="122" r="5.1" fill="#cfeef3" opacity="0.51"/><circle cx="297" cy="1989" r="4.9" fill="#cfeef3" opacity="0.73"/><circle cx="343" cy="1815" r="2.3" fill="#cfeef3" opacity="0.77"/><circle cx="1859" cy="719" r="4.5" fill="#cfeef3" opacity="0.81"/><circle cx="1097" cy="274" r="4.4" fill="#cfeef3" opacity="0.39"/><circle cx="448" cy="342" r="2.2" fill="#cfeef3" opacity="0.37"/><circle cx="1278" cy="647" r="5.4" fill="#cfeef3" opacity="0.42"/><circle cx="2048" cy="377" r="3.6" fill="#cfeef3" opacity="0.26"/><circle cx="1026" cy="33" r="5.3" fill="#cfeef3" opacity="0.58"/><circle cx="776" cy="1006" r="6.2" fill="#cfeef3" opacity="0.31"/><circle cx="3354" cy="916" r="4.2" fill="#cfeef3" opacity="0.75"/><circle cx="1610" cy="1074" r="5.1" fill="#cfeef3" opacity="0.84"/><circle cx="1404" cy="1764" r="5.2" fill="#cfeef3" opacity="0.63"/><circle cx="1658" cy="737" r="2.2" fill="#cfeef3" opacity="0.33"/><circle cx="290" cy="1570" r="3.2" fill="#cfeef3" opacity="0.35"/><circle cx="346" cy="1783" r="5.9" fill="#cfeef3" opacity="0.65"/><circle cx="1155" cy="513" r="3.3" fill="#cfeef3" opacity="0.53"/><circle cx="645" cy="945" r="3.2" fill="#cfeef3" opacity="0.83"/><circle cx="3984" cy="1160" r="3.1" fill="#cfeef3" opacity="0.83"/><circle cx="1268" cy="756" r="2.0" fill="#cfeef3" opacity="0.48"/><circle cx="1944" cy="1066" r="2.9" fill="#cfeef3" opacity="0.55"/><circle cx="20" cy="560" r="2.4" fill="#cfeef3" opacity="0.49"/><circle cx="171" cy="48" r="3.4" fill="#cfeef3" opacity="0.39"/><circle cx="2399" cy="1122" r="5.4" fill="#cfeef3" opacity="0.64"/><circle cx="2933" cy="1863" r="3.8" fill="#cfeef3" opacity="0.45"/><circle cx="4033" cy="317" r="5.3" fill="#cfeef3" opacity="0.64"/><circle cx="179" cy="1771" r="6.0" fill="#cfeef3" opacity="0.63"/><circle cx="3006" cy="1722" r="2.6" fill="#cfeef3" opacity="0.56"/><circle cx="2066" cy="1770" r="5.6" fill="#cfeef3" opacity="0.75"/><circle cx="2392" cy="1893" r="5.1" fill="#cfeef3" opacity="0.67"/><circle cx="942" cy="66" r="2.6" fill="#cfeef3" opacity="0.47"/><circle cx="430" cy="1772" r="4.5" fill="#cfeef3" opacity="0.63"/><circle cx="2565" cy="1443" r="4.2" fill="#cfeef3" opacity="0.25"/><circle cx="3267" cy="1586" r="4.3" fill="#cfeef3" opacity="0.57"/><circle cx="2700" cy="140" r="5.3" fill="#cfeef3" opacity="0.40"/><circle cx="305" cy="563" r="5.3" fill="#cfeef3" opacity="0.37"/><circle cx="3030" cy="2068" r="4.2" fill="#cfeef3" opacity="0.48"/><circle cx="1962" cy="1449" r="5.5" fill="#cfeef3" opacity="0.62"/><circle cx="2633" cy="164" r="2.7" fill="#cfeef3" opacity="0.40"/><circle cx="3044" cy="645" r="4.6" fill="#cfeef3" opacity="0.26"/><circle cx="248" cy="570" r="5.0" fill="#cfeef3" opacity="0.67"/><circle cx="2768" cy="617" r="4.3" fill="#cfeef3" opacity="0.53"/><circle cx="1910" cy="251" r="6.0" fill="#cfeef3" opacity="0.37"/><circle cx="4006" cy="1985" r="2.1" fill="#cfeef3" opacity="0.53"/><circle cx="3358" cy="2052" r="4.0" fill="#cfeef3" opacity="0.41"/><circle cx="859" cy="2004" r="2.9" fill="#cfeef3" opacity="0.60"/><circle cx="581" cy="1111" r="6.3" fill="#cfeef3" opacity="0.33"/><circle cx="3360" cy="1078" r="6.0" fill="#cfeef3" opacity="0.67"/><circle cx="948" cy="1903" r="4.2" fill="#cfeef3" opacity="0.26"/><circle cx="15" cy="1042" r="4.0" fill="#cfeef3" opacity="0.43"/><circle cx="576" cy="729" r="3.4" fill="#cfeef3" opacity="0.75"/><circle cx="7" cy="1591" r="5.8" fill="#cfeef3" opacity="0.32"/><circle cx="3795" cy="1511" r="6.1" fill="#cfeef3" opacity="0.42"/><circle cx="1525" cy="833" r="6.5" fill="#cfeef3" opacity="0.60"/><circle cx="1477" cy="907" r="3.2" fill="#cfeef3" opacity="0.28"/><circle cx="417" cy="1769" r="3.3" fill="#cfeef3" opacity="0.81"/><circle cx="1021" cy="563" r="4.3" fill="#cfeef3" opacity="0.36"/><circle cx="1529" cy="2027" r="6.0" fill="#cfeef3" opacity="0.74"/><circle cx="2584" cy="1936" r="6.2" fill="#cfeef3" opacity="0.58"/><circle cx="2947" cy="105" r="5.3" fill="#cfeef3" opacity="0.52"/><circle cx="3083" cy="1366" r="3.3" fill="#cfeef3" opacity="0.28"/><circle cx="3796" cy="270" r="4.1" fill="#cfeef3" opacity="0.46"/><circle cx="1220" cy="1567" r="6.4" fill="#cfeef3" opacity="0.41"/><circle cx="2687" cy="638" r="4.5" fill="#cfeef3" opacity="0.49"/>
<line x1="420" y1="330" x2="860" y2="430" stroke="url(#streak)" stroke-width="6" stroke-linecap="round"/>
<ellipse cx="2048" cy="2540" rx="2750" ry="980" fill="url(#glow)"/>
<g transform="translate(575.6,537.6) scale(2.4)"><path d="M362 150 A150 150 0 1 0 362 362" fill="none" stroke="#3fd0e0" stroke-width="64" stroke-linecap="round"/>
<circle cx="406" cy="256" r="28" fill="#eaf6f8"/></g>
<text x="1750" y="1210" font-family="-apple-system,'SF Pro Display','Helvetica Neue',Arial,sans-serif" font-size="330" font-weight="500" letter-spacing="66" fill="url(#title)">CAELYN</text>
<text x="1760" y="1390" font-family="-apple-system,'SF Pro Display','Helvetica Neue',Arial,sans-serif" font-size="96" font-weight="500" letter-spacing="58" fill="#3fd0e0">TECH</text>
<text x="1760" y="1565" font-family="-apple-system,'SF Pro Display','Helvetica Neue',Arial,sans-serif" font-size="96" fill="#8aa0ad">Tecnología y desarrollo de aplicaciones</text>
</svg>