<svg width="4096" height="4096" viewBox="0 0 4096 4096" xmlns="http://www.w3.org/2000/svg">
<defs>
<radialGradient id="sky" cx="50%" cy="50%" r="75%">
<stop offset="0%" stop-color="#0f2740"/><stop offset="55%" stop-color="#0a1a2d"/><stop offset="100%" stop-color="#07101d"/>
</radialGradient>
<radialGradient id="glow" cx="50%" cy="50%" r="50%">
<stop offset="0%" stop-color="#3fd0e0" stop-opacity="0.16"/><stop offset="100%" stop-color="#3fd0e0" stop-opacity="0"/>
</radialGradient>
<linearGradient id="title" x1="0" y1="0" x2="0" y2="1">
<stop offset="0.2" stop-color="#ffffff"/><stop offset="1" stop-color="#9fd9e3"/>
</linearGradient>
<linearGradient id="streak" x1="0" y1="0" x2="1" y2="0">
<stop offset="0" stop-color="#cfeef3" stop-opacity="0"/><stop offset="1" stop-color="#cfeef3" stop-opacity="0.8"/>
</linearGradient>
</defs>
<rect width="4096" height="4096" fill="url(#sky)"/>
<circle cx="1326" cy="618" r="4.9" fill="#cfeef3" opacity="0.29"/><circle cx="2195" cy="1498" r="2.3" fill="#cfeef3" opacity="0.55"/><circle cx="154" cy="1776" r="2.3" fill="#cfeef3" opacity="0.30"/><circle cx="1739" cy="3387" r="2.6" fill="#cfeef3" opacity="0.38"/><circle cx="2570" cy="3882" r="4.6" fill="#cfeef3" opacity="0.49"/><circle cx="3999" cy="191" r="5.9" fill="#cfeef3" opacity="0.42"/><circle cx="591" cy="482" r="3.4" fill="#cfeef3" opacity="0.74"/><circle cx="740" cy="2382" r="4.9" fill="#cfeef3" opacity="0.47"/><circle cx="2244" cy="257" r="2.3" fill="#cfeef3" opacity="0.37"/><circle cx="2787" cy="1751" r="3.4" fill="#cfeef3" opacity="0.60"/><circle cx="1856" cy="1228" r="5.6" fill="#cfeef3" opacity="0.67"/><circle cx="1000" cy="2353" r="4.4" fill="#cfeef3" opacity="0.78"/><circle cx="2988" cy="1179" r="6.4" fill="#cfeef3" opacity="0.32"/><circle cx="1713" cy="3101" r="2.7" fill="#cfeef3" opacity="0.54"/><circle cx="161" cy="2737" r="5.4" fill="#cfeef3" opacity="0.59"/><circle cx="3586" cy="1285" r="5.1" fill="#cfeef3" opacity="0.61"/><circle cx="2375" cy="1869" r="5.8" fill="#cfeef3" opacity="0.82"/><circle cx="1942" cy="2720" r="2.3" fill="#cfeef3" opacity="0.67"/><circle cx="2651" cy="4068" r="5.7" fill="#cfeef3" opacity="0.42"/><circle cx="1580" cy="2739" r="2.1" fill="#cfeef3" opacity="0.53"/><circle cx="688" cy="480" r="2.3" fill="#cfeef3" opacity="0.71"/><circle cx="530" cy="1014" r="3.8" fill="#cfeef3" opacity="0.77"/><circle cx="330" cy="1840" r="4.5" fill="#cfeef3" opacity="0.78"/><circle cx="3356" cy="3539" r="3.3" fill="#cfeef3" opacity="0.50"/><circle cx="1470" cy="3622" r="6.3" fill="#cfeef3" opacity="0.34"/><circle cx="722" cy="950" r="3.1" fill="#cfeef3" opacity="0.54"/><circle cx="2413" cy="1076" r="2.0" fill="#cfeef3" opacity="0.50"/><circle cx="1512" cy="2320" r="6.3" fill="#cfeef3" opacity="0.66"/><circle cx="2111" cy="2530" r="5.0" fill="#cfeef3" opacity="0.28"/><circle cx="3684" cy="3195" r="5.9" fill="#cfeef3" opacity="0.73"/><circle cx="1607" cy="1634" r="2.5" fill="#cfeef3" opacity="0.63"/><circle cx="255" cy="276" r="2.9" fill="#cfeef3" opacity="0.35"/><circle cx="1393" cy="215" r="2.0" fill="#cfeef3" opacity="0.34"/><circle cx="416" cy="1489" r="2.1" fill="#cfeef3" opacity="0.77"/><circle cx="2515" cy="608" r="3.1" fill="#cfeef3" opacity="0.46"/><circle cx="1492" cy="503" r="5.8" fill="#cfeef3" opacity="0.85"/><circle cx="1909" cy="1982" r="2.4" fill="#cfeef3" opacity="0.31"/><circle cx="1403" cy="1084" r="5.7" fill="#cfeef3" opacity="0.35"/><circle cx="95" cy="3895" r="4.4" fill="#cfeef3" opacity="0.34"/><circle cx="2225" cy="111" r="4.4" fill="#cfeef3" opacity="0.84"/><circle cx="3536" cy="2852" r="3.2" fill="#cfeef3" opacity="0.47"/><circle cx="684" cy="3162" r="4.4" fill="#cfeef3" opacity="0.72"/><circle cx="1350" cy="914" r="5.7" fill="#cfeef3" opacity="0.84"/><circle cx="3492" cy="3302" r="5.7" fill="#cfeef3" opacity="0.69"/><circle cx="929" cy="2120" r="3.6" fill="#cfeef3" opacity="0.27"/><circle cx="114" cy="1144" r="3.2" fill="#cfeef3" opacity="0.67"/><circle cx="3918" cy="1832" r="6.2" fill="#cfeef3" opacity="0.84"/><circle cx="3912" cy="1494" r="3.0" fill="#cfeef3" opacity="0.39"/><circle cx="806" cy="837" r="4.8" fill="#cfeef3" opacity="0.79"/><circle cx="3442" cy="1964" r="4.9" fill="#cfeef3" opacity="0.73"/><circle cx="347" cy="2706" r="6.1" fill="#cfeef3" opacity="0.72"/><circle cx="3073" cy="1958" r="2.8" fill="#cfeef3" opacity="0.72"/><circle cx="1362" cy="3280" r="6.4" fill="#cfeef3" opacity="0.49"/><circle cx="1644" cy="3878" r="5.3" fill="#cfeef3" opacity="0.35"/><circle cx="520" cy="619" r="6.1" fill="#cfeef3" opacity="0.73"/><circle cx="599" cy="3385" r="6.4" fill="#cfeef3" opacity="0.64"/><circle cx="1435" cy="2247" r="2.6" fill="#cfeef3" opacity="0.26"/><circle cx="3977" cy="2661" r="4.4" fill="#cfeef3" opacity="0.81"/><circle cx="1777" cy="3571" r="5.7" fill="#cfeef3" opacity="0.38"/><circle cx="1032" cy="1200" r="3.1" fill="#cfeef3" opacity="0.60"/><circle cx="1062" cy="1716" r="2.6" fill="#cfeef3" opacity="0.80"/><circle cx="1449" cy="1877" r="4.6" fill="#cfeef3" opacity="0.79"/><circle cx="1723" cy="3759" r="4.3" fill="#cfeef3" opacity="0.57"/><circle cx="2144" cy="77" r="4.0" fill="#cfeef3" opacity="0.36"/><circle cx="16" cy="3273" r="2.8" fill="#cfeef3" opacity="0.53"/><circle cx="2970" cy="2279" r="3.5" fill="#cfeef3" opacity="0.56"/><circle cx="2275" cy="3212" r="2.5" fill="#cfeef3" opacity="0.59"/><circle cx="1018" cy="1134" r="5.5" fill="#cfeef3" opacity="0.55"/><circle cx="2301" cy="3113" r="6.1" fill="#cfeef3" opacity="0.52"/><circle cx="2509" cy="2071" r="4.3" fill="#cfeef3" opacity="0.67"/><circle cx="1853" cy="2184" r="4.2" fill="#cfeef3" opacity="0.81"/><circle cx="2864" cy="3590" r="6.2" fill="#cfeef3" opacity="0.41"/><circle cx="2292" cy="3864" r="5.8" fill="#cfeef3" opacity="0.33"/><circle cx="498" cy="1811" r="2.3" fill="#cfeef3" opacity="0.39"/><circle cx="300" cy="2742" r="5.5" fill="#cfeef3" opacity="0.79"/><circle cx="633" cy="2933" r="5.0" fill="#cfeef3" opacity="0.34"/><circle cx="3616" cy="3963" r="3.0" fill="#cfeef3" opacity="0.82"/><circle cx="1631" cy="1996" r="6.5" fill="#cfeef3" opacity="0.75"/><circle cx="661" cy="1768" r="4.3" fill="#cfeef3" opacity="0.45"/><circle cx="802" cy="1305" r="5.2" fill="#cfeef3" opacity="0.26"/><circle cx="2269" cy="1804" r="2.1" fill="#cfeef3" opacity="0.45"/><circle cx="2556" cy="2098" r="2.3" fill="#cfeef3" opacity="0.84"/><circle cx="3229" cy="3980" r="2.5" fill="#cfeef3" opacity="0.41"/><circle cx="162" cy="3191" r="3.2" fill="#cfeef3" opacity="0.33"/><circle cx="1730" cy="3733" r="5.7" fill="#cfeef3" opacity="0.41"/><circle cx="612" cy="3765" r="4.6" fill="#cfeef3" opacity="0.67"/><circle cx="366" cy="236" r="5.1" fill="#cfeef3" opacity="0.51"/><circle cx="297" cy="3843" r="4.9" fill="#cfeef3" opacity="0.73"/><circle cx="343" cy="3507" r="2.3" fill="#cfeef3" opacity="0.77"/><circle cx="1859" cy="1389" r="4.5" fill="#cfeef3" opacity="0.81"/><circle cx="1097" cy="529" r="4.4" fill="#cfeef3" opacity="0.39"/><circle cx="448" cy="661" r="2.2" fill="#cfeef3" opacity="0.37"/><circle cx="1278" cy="1249" r="5.4" fill="#cfeef3" opacity="0.42"/><circle cx="2048" cy="729" r="3.6" fill="#cfeef3" opacity="0.26"/><circle cx="1026" cy="63" r="5.3" fill="#cfeef3" opacity="0.58"/><circle cx="776" cy="1945" r="6.2" fill="#cfeef3" opacity="0.31"/><circle cx="3354" cy="1770" r="4.2" fill="#cfeef3" opacity="0.75"/><circle cx="1610" cy="2075" r="5.1" fill="#cfeef3" opacity="0.84"/><circle cx="1404" cy="3409" r="5.2" fill="#cfeef3" opacity="0.63"/><circle cx="1658" cy="1424" r="2.2" fill="#cfeef3" opacity="0.33"/><circle cx="290" cy="3035" r="3.2" fill="#cfeef3" opacity="0.35"/><circle cx="346" cy="3446" r="5.9" fill="#cfeef3" opacity="0.65"/><circle cx="1155" cy="992" r="3.3" fill="#cfeef3" opacity="0.53"/><circle cx="645" cy="1826" r="3.2" fill="#cfeef3" opacity="0.83"/><circle cx="3984" cy="2241" r="3.1" fill="#cfeef3" opacity="0.83"/><circle cx="1268" cy="1461" r="2.0" fill="#cfeef3" opacity="0.48"/><circle cx="1944" cy="2059" r="2.9" fill="#cfeef3" opacity="0.55"/><circle cx="20" cy="1082" r="2.4" fill="#cfeef3" opacity="0.49"/><circle cx="171" cy="92" r="3.4" fill="#cfeef3" opacity="0.39"/><circle cx="2399" cy="2168" r="5.4" fill="#cfeef3" opacity="0.64"/><circle cx="2933" cy="3601" r="3.8" fill="#cfeef3" opacity="0.45"/><circle cx="4033" cy="612" r="5.3" fill="#cfeef3" opacity="0.64"/><circle cx="179" cy="3421" r="6.0" fill="#cfeef3" opacity="0.63"/><circle cx="3006" cy="3327" r="2.6" fill="#cfeef3" opacity="0.56"/><circle cx="2066" cy="3420" r="5.6" fill="#cfeef3" opacity="0.75"/><circle cx="2392" cy="3657" r="5.1" fill="#cfeef3" opacity="0.67"/><circle cx="942" cy="128" r="2.6" fill="#cfeef3" opacity="0.47"/><circle cx="430" cy="3424" r="4.5" fill="#cfeef3" opacity="0.63"/><circle cx="2565" cy="2788" r="4.2" fill="#cfeef3" opacity="0.25"/><circle cx="3267" cy="3065" r="4.3" fill="#cfeef3" opacity="0.57"/><circle cx="2700" cy="271" r="5.3" fill="#cfeef3" opacity="0.40"/><circle cx="305" cy="1088" r="5.3" fill="#cfeef3" opacity="0.37"/><circle cx="3030" cy="3997" r="4.2" fill="#cfeef3" opacity="0.48"/><circle cx="1962" cy="2800" r="5.5" fill="#cfeef3" opacity="0.62"/><circle cx="2633" cy="317" r="2.7" fill="#cfeef3" opacity="0.40"/><circle cx="3044" cy="1247" r="4.6" fill="#cfeef3" opacity="0.26"/><circle cx="248" cy="1101" r="5.0" fill="#cfeef3" opacity="0.67"/><circle cx="2768" cy="1191" r="4.3" fill="#cfeef3" opacity="0.53"/><circle cx="1910" cy="485" r="6.0" fill="#cfeef3" opacity="0.37"/><circle cx="4006" cy="3835" r="2.1" fill="#cfeef3" opacity="0.53"/><circle cx="3358" cy="3965" r="4.0" fill="#cfeef3" opacity="0.41"/><circle cx="859" cy="3873" r="2.9" fill="#cfeef3" opacity="0.60"/><circle cx="581" cy="2147" r="6.3" fill="#cfeef3" opacity="0.33"/><circle cx="3360" cy="2084" r="6.0" fill="#cfeef3" opacity="0.67"/><circle cx="948" cy="3677" r="4.2" fill="#cfeef3" opacity="0.26"/><circle cx="15" cy="2014" r="4.0" fill="#cfeef3" opacity="0.43"/><circle cx="576" cy="1409" r="3.4" fill="#cfeef3" opacity="0.75"/><circle cx="7" cy="3075" r="5.8" fill="#cfeef3" opacity="0.32"/><circle cx="3795" cy="2921" r="6.1" fill="#cfeef3" opacity="0.42"/><circle cx="1525" cy="1609" r="6.5" fill="#cfeef3" opacity="0.60"/><circle cx="1477" cy="1753" r="3.2" fill="#cfeef3" opacity="0.28"/><circle cx="417" cy="3419" r="3.3" fill="#cfeef3" opacity="0.81"/><circle cx="1021" cy="1088" r="4.3" fill="#cfeef3" opacity="0.36"/><circle cx="1529" cy="3916" r="6.0" fill="#cfeef3" opacity="0.74"/><circle cx="2584" cy="3741" r="6.2" fill="#cfeef3" opacity="0.58"/><circle cx="2947" cy="203" r="5.3" fill="#cfeef3" opacity="0.52"/><circle cx="3083" cy="2640" r="3.3" fill="#cfeef3" opacity="0.28"/><circle cx="3796" cy="521" r="4.1" fill="#cfeef3" opacity="0.46"/><circle cx="1220" cy="3027" r="6.4" fill="#cfeef3" opacity="0.41"/><circle cx="2687" cy="1232" r="4.5" fill="#cfeef3" opacity="0.49"/><circle cx="685" cy="662" r="2.9" fill="#cfeef3" opacity="0.79"/><circle cx="2036" cy="901" r="6.1" fill="#cfeef3" opacity="0.85"/><circle cx="1843" cy="572" r="2.9" fill="#cfeef3" opacity="0.30"/><circle cx="1401" cy="373" r="3.1" fill="#cfeef3" opacity="0.41"/><circle cx="2333" cy="3634" r="5.4" fill="#cfeef3" opacity="0.50"/><circle cx="1695" cy="2147" r="3.7" fill="#cfeef3" opacity="0.45"/><circle cx="254" cy="1137" r="6.4" fill="#cfeef3" opacity="0.33"/><circle cx="2062" cy="2579" r="5.9" fill="#cfeef3" opacity="0.38"/><circle cx="1110" cy="1018" r="3.8" fill="#cfeef3" opacity="0.52"/><circle cx="3907" cy="3476" r="5.9" fill="#cfeef3" opacity="0.26"/><circle cx="132" cy="2906" r="6.0" fill="#cfeef3" opacity="0.53"/><circle cx="2405" cy="1" r="3.8" fill="#cfeef3" opacity="0.81"/><circle cx="3382" cy="3504" r="6.4" fill="#cfeef3" opacity="0.40"/><circle cx="447" cy="632" r="4.4" fill="#cfeef3" opacity="0.66"/><circle cx="3856" cy="2956" r="4.9" fill="#cfeef3" opacity="0.71"/><circle cx="1873" cy="2259" r="2.2" fill="#cfeef3" opacity="0.72"/><circle cx="953" cy="3768" r="4.9" fill="#cfeef3" opacity="0.43"/><circle cx="524" cy="1031" r="4.9" fill="#cfeef3" opacity="0.67"/><circle cx="459" cy="288" r="4.4" fill="#cfeef3" opacity="0.60"/><circle cx="1590" cy="916" r="4.7" fill="#cfeef3" opacity="0.26"/><circle cx="1235" cy="1887" r="6.3" fill="#cfeef3" opacity="0.64"/><circle cx="3620" cy="1947" r="3.1" fill="#cfeef3" opacity="0.40"/><circle cx="3935" cy="2886" r="3.4" fill="#cfeef3" opacity="0.26"/><circle cx="2041" cy="2763" r="3.9" fill="#cfeef3" opacity="0.40"/><circle cx="2733" cy="3789" r="3.0" fill="#cfeef3" opacity="0.27"/><circle cx="1385" cy="1723" r="5.1" fill="#cfeef3" opacity="0.37"/><circle cx="3265" cy="3027" r="4.3" fill="#cfeef3" opacity="0.37"/><circle cx="3973" cy="1277" r="5.7" fill="#cfeef3" opacity="0.39"/><circle cx="907" cy="3115" r="3.3" fill="#cfeef3" opacity="0.82"/><circle cx="2031" cy="767" r="3.0" fill="#cfeef3" opacity="0.50"/><circle cx="2725" cy="3886" r="2.7" fill="#cfeef3" opacity="0.49"/><circle cx="872" cy="3990" r="2.6" fill="#cfeef3" opacity="0.28"/><circle cx="246" cy="1611" r="6.0" fill="#cfeef3" opacity="0.78"/><circle cx="3001" cy="4086" r="6.2" fill="#cfeef3" opacity="0.45"/><circle cx="760" cy="3833" r="5.4" fill="#cfeef3" opacity="0.27"/><circle cx="2722" cy="1551" r="3.7" fill="#cfeef3" opacity="0.45"/><circle cx="693" cy="12" r="3.3" fill="#cfeef3" opacity="0.46"/><circle cx="3914" cy="507" r="6.3" fill="#cfeef3" opacity="0.37"/><circle cx="1461" cy="3365" r="5.7" fill="#cfeef3" opacity="0.51"/><circle cx="202" cy="1939" r="3.7" fill="#cfeef3" opacity="0.80"/><circle cx="791" cy="1492" r="6.0" fill="#cfeef3" opacity="0.27"/><circle cx="1683" cy="3325" r="5.5" fill="#cfeef3" opacity="0.27"/><circle cx="143" cy="256" r="6.1" fill="#cfeef3" opacity="0.40"/><circle cx="3061" cy="3680" r="3.5" fill="#cfeef3" opacity="0.41"/><circle cx="3923" cy="2527" r="3.2" fill="#cfeef3" opacity="0.68"/><circle cx="1296" cy="1129" r="2.0" fill="#cfeef3" opacity="0.70"/><circle cx="3754" cy="2597" r="6.2" fill="#cfeef3" opacity="0.26"/><circle cx="958" cy="1946" r="6.3" fill="#cfeef3" opacity="0.82"/><circle cx="1583" cy="1028" r="3.9" fill="#cfeef3" opacity="0.55"/><circle cx="3801" cy="749" r="5.6" fill="#cfeef3" opacity="0.69"/><circle cx="3370" cy="3165" r="4.7" fill="#cfeef3" opacity="0.45"/><circle cx="1309" cy="1482" r="5.5" fill="#cfeef3" opacity="0.30"/><circle cx="808" cy="3084" r="3.1" fill="#cfeef3" opacity="0.29"/><circle cx="139" cy="2263" r="3.5" fill="#cfeef3" opacity="0.84"/><circle cx="3619" cy="4046" r="3.2" fill="#cfeef3" opacity="0.30"/><circle cx="395" cy="2042" r="5.2" fill="#cfeef3" opacity="0.52"/><circle cx="959" cy="1707" r="4.8" fill="#cfeef3" opacity="0.65"/><circle cx="3064" cy="3469" r="5.0" fill="#cfeef3" opacity="0.32"/><circle cx="3444" cy="1203" r="4.6" fill="#cfeef3" opacity="0.47"/><circle cx="3023" cy="816" r="3.1" fill="#cfeef3" opacity="0.40"/><circle cx="628" cy="3622" r="4.6" fill="#cfeef3" opacity="0.45"/><circle cx="1622" cy="4065" r="4.3" fill="#cfeef3" opacity="0.39"/><circle cx="3311" cy="2676" r="6.5" fill="#cfeef3" opacity="0.31"/><circle cx="1945" cy="3355" r="5.8" fill="#cfeef3" opacity="0.80"/><circle cx="165" cy="1203" r="2.5" fill="#cfeef3" opacity="0.36"/><circle cx="3985" cy="2389" r="6.2" fill="#cfeef3" opacity="0.47"/><circle cx="3548" cy="1840" r="3.2" fill="#cfeef3" opacity="0.72"/><circle cx="3874" cy="433" r="4.7" fill="#cfeef3" opacity="0.62"/><circle cx="891" cy="1510" r="2.6" fill="#cfeef3" opacity="0.37"/><circle cx="1044" cy="2455" r="4.9" fill="#cfeef3" opacity="0.37"/><circle cx="47" cy="1340" r="5.1" fill="#cfeef3" opacity="0.36"/><circle cx="1279" cy="833" r="5.6" fill="#cfeef3" opacity="0.58"/><circle cx="259" cy="415" r="3.8" fill="#cfeef3" opacity="0.58"/><circle cx="2618" cy="373" r="2.7" fill="#cfeef3" opacity="0.67"/><circle cx="1678" cy="1160" r="3.4" fill="#cfeef3" opacity="0.82"/><circle cx="1279" cy="2320" r="3.6" fill="#cfeef3" opacity="0.50"/><circle cx="3540" cy="4082" r="3.6" fill="#cfeef3" opacity="0.37"/><circle cx="2982" cy="834" r="2.0" fill="#cfeef3" opacity="0.79"/><circle cx="1736" cy="3360" r="3.8" fill="#cfeef3" opacity="0.78"/><circle cx="1888" cy="666" r="2.1" fill="#cfeef3" opacity="0.58"/><circle cx="2624" cy="3727" r="2.4" fill="#cfeef3" opacity="0.62"/><circle cx="1519" cy="2066" r="2.7" fill="#cfeef3" opacity="0.42"/><circle cx="2135" cy="3791" r="2.5" fill="#cfeef3" opacity="0.54"/><circle cx="3297" cy="3960" r="2.9" fill="#cfeef3" opacity="0.33"/><circle cx="3863" cy="3996" r="4.2" fill="#cfeef3" opacity="0.28"/><circle cx="3794" cy="1589" r="6.1" fill="#cfeef3" opacity="0.62"/><circle cx="3377" cy="656" r="5.5" fill="#cfeef3" opacity="0.38"/><circle cx="1657" cy="3467" r="5.7" fill="#cfeef3" opacity="0.36"/><circle cx="893" cy="1637" r="4.3" fill="#cfeef3" opacity="0.48"/><circle cx="504" cy="1012" r="5.3" fill="#cfeef3" opacity="0.79"/><circle cx="168" cy="2303" r="5.4" fill="#cfeef3" opacity="0.27"/><circle cx="3433" cy="482" r="4.7" fill="#cfeef3" opacity="0.58"/><circle cx="2568" cy="1254" r="3.9" fill="#cfeef3" opacity="0.60"/><circle cx="1744" cy="2699" r="4.0" fill="#cfeef3" opacity="0.51"/><circle cx="96" cy="2535" r="4.2" fill="#cfeef3" opacity="0.39"/><circle cx="3128" cy="3195" r="4.1" fill="#cfeef3" opacity="0.36"/><circle cx="1938" cy="439" r="2.6" fill="#cfeef3" opacity="0.51"/><circle cx="376" cy="1810" r="4.3" fill="#cfeef3" opacity="0.27"/><circle cx="2607" cy="337" r="5.3" fill="#cfeef3" opacity="0.72"/><circle cx="2095" cy="222" r="4.3" fill="#cfeef3" opacity="0.48"/><circle cx="3895" cy="558" r="5.9" fill="#cfeef3" opacity="0.85"/><circle cx="2999" cy="3338" r="2.9" fill="#cfeef3" opacity="0.84"/><circle cx="2015" cy="3918" r="6.1" fill="#cfeef3" opacity="0.35"/><circle cx="3229" cy="3812" r="2.3" fill="#cfeef3" opacity="0.46"/><circle cx="3097" cy="650" r="6.0" fill="#cfeef3" opacity="0.41"/><circle cx="3341" cy="588" r="4.3" fill="#cfeef3" opacity="0.80"/><circle cx="853" cy="1077" r="4.3" fill="#cfeef3" opacity="0.44"/><circle cx="151" cy="746" r="2.7" fill="#cfeef3" opacity="0.81"/><circle cx="2784" cy="3668" r="2.8" fill="#cfeef3" opacity="0.72"/><circle cx="471" cy="2174" r="4.9" fill="#cfeef3" opacity="0.47"/><circle cx="3576" cy="2274" r="4.6" fill="#cfeef3" opacity="0.78"/><circle cx="428" cy="4067" r="4.8" fill="#cfeef3" opacity="0.49"/><circle cx="3267" cy="1084" r="6.5" fill="#cfeef3" opacity="0.60"/><circle cx="1476" cy="3132" r="4.0" fill="#cfeef3" opacity="0.36"/><circle cx="3046" cy="198" r="5.7" fill="#cfeef3" opacity="0.40"/><circle cx="2618" cy="4031" r="4.6" fill="#cfeef3" opacity="0.65"/><circle cx="1281" cy="7" r="2.2" fill="#cfeef3" opacity="0.34"/><circle cx="2523" cy="1770" r="4.3" fill="#cfeef3" opacity="0.79"/><circle cx="541" cy="931" r="4.9" fill="#cfeef3" opacity="0.26"/><circle cx="11" cy="1454" r="2.5" fill="#cfeef3" opacity="0.46"/><circle cx="919" cy="2390" r="4.7" fill="#cfeef3" opacity="0.37"/><circle cx="2556" cy="1945" r="2.6" fill="#cfeef3" opacity="0.81"/><circle cx="998" cy="612" r="2.4" fill="#cfeef3" opacity="0.63"/><circle cx="3569" cy="3204" r="3.8" fill="#cfeef3" opacity="0.41"/><circle cx="47" cy="2642" r="4.5" fill="#cfeef3" opacity="0.46"/><circle cx="2644" cy="1818" r="6.2" fill="#cfeef3" opacity="0.69"/><circle cx="1018" cy="3701" r="2.2" fill="#cfeef3" opacity="0.57"/><circle cx="1663" cy="973" r="2.3" fill="#cfeef3" opacity="0.72"/><circle cx="51" cy="2257" r="6.2" fill="#cfeef3" opacity="0.34"/><circle cx="817" cy="2491" r="4.3" fill="#cfeef3" opacity="0.63"/>
<line x1="420" y1="1226" x2="860" y2="1326" stroke="url(#streak)" stroke-width="6" stroke-linecap="round"/>
<ellipse cx="2048" cy="3336" rx="2750" ry="980" fill="url(#glow)"/>
<g transform="translate(575.6,1433.6) scale(2.4)"><path d="M362 150 A150 150 0 1 0 362 362" fill="none" stroke="#3fd0e0" stroke-width="64" stroke-linecap="round"/><circle cx="406" cy="256" r="28" fill="#eaf6f8"/></g>
<text x="1750" y="2106" font-family="Helvetica Neue,Arial,sans-serif" font-size="330" font-weight="500" letter-spacing="66" fill="url(#title)">CAELYN</text>
<text x="1760" y="2286" font-family="Helvetica Neue,Arial,sans-serif" font-size="96" font-weight="500" letter-spacing="58" fill="#3fd0e0">TECH</text>
<text x="1760" y="2461" font-family="Helvetica Neue,Arial,sans-serif" font-size="96" fill="#8aa0ad">Tecnología y desarrollo de aplicaciones</text>
</svg>